<?xml version="1.0" encoding="UTF-8"?>
<svg xmlns="http://www.w3.org/2000/svg" width="933" height="211">
   <defs>
      <style type="text/css">
    @namespace "http://www.w3.org/2000/svg";
    .line                 {fill: none; stroke: #332900; stroke-width: 1;}
    .bold-line            {stroke: #141000; shape-rendering: crispEdges; stroke-width: 2;}
    .thin-line            {stroke: #1F1800; shape-rendering: crispEdges}
    .filled               {fill: #332900; stroke: none;}
    text.terminal         {font-family: Verdana, Sans-serif;
                            font-size: 12px;
                            fill: #141000;
                            font-weight: bold;
                          }
    text.nonterminal      {font-family: Verdana, Sans-serif;
                            font-size: 12px;
                            fill: #1A1400;
                            font-weight: normal;
                          }
    text.regexp           {font-family: Verdana, Sans-serif;
                            font-size: 12px;
                            fill: #1F1800;
                            font-weight: normal;
                          }
    rect, circle, polygon {fill: #332900; stroke: #332900;}
    rect.terminal         {fill: #FFDB4D; stroke: #332900; stroke-width: 1;}
    rect.nonterminal      {fill: #FFEC9E; stroke: #332900; stroke-width: 1;}
    rect.text             {fill: none; stroke: none;}
    polygon.regexp        {fill: #FFF4C7; stroke: #332900; stroke-width: 1;}
  </style>
   </defs>
   <polygon points="9 77 1 73 1 81"/>
   <polygon points="17 77 9 73 9 81"/>
   <rect x="71" y="63" width="66" height="32" rx="10"/>
   <rect x="69"
         y="61"
         width="66"
         height="32"
         class="terminal"
         rx="10"/>
   <text class="terminal" x="79" y="81">CONST</text>
   <a xmlns:xlink="http://www.w3.org/1999/xlink"
      xlink:href="#Type"
      xlink:title="Type">
      <rect x="157" y="63" width="50" height="32"/>
      <rect x="155" y="61" width="50" height="32" class="nonterminal"/>
      <text class="nonterminal" x="165" y="81">Type</text>
   </a>
   <a xmlns:xlink="http://www.w3.org/1999/xlink"
      xlink:href="#Name"
      xlink:title="Name">
      <rect x="247" y="63" width="56" height="32"/>
      <rect x="245" y="61" width="56" height="32" class="nonterminal"/>
      <text class="nonterminal" x="255" y="81">Name</text>
   </a>
   <rect x="323" y="63" width="30" height="32" rx="10"/>
   <rect x="321"
         y="61"
         width="30"
         height="32"
         class="terminal"
         rx="10"/>
   <text class="terminal" x="331" y="81">=</text>
   <a xmlns:xlink="http://www.w3.org/1999/xlink"
      xlink:href="#Value"
      xlink:title="Value">
      <rect x="373" y="63" width="56" height="32"/>
      <rect x="371" y="61" width="56" height="32" class="nonterminal"/>
      <text class="nonterminal" x="381" y="81">Value</text>
   </a>
   <rect x="247" y="19" width="24" height="32" rx="10"/>
   <rect x="245"
         y="17"
         width="24"
         height="32"
         class="terminal"
         rx="10"/>
   <text class="terminal" x="255" y="37">,</text>
   <rect x="469" y="63" width="24" height="32" rx="10"/>
   <rect x="467"
         y="61"
         width="24"
         height="32"
         class="terminal"
         rx="10"/>
   <text class="terminal" x="477" y="81">;</text>
   <rect x="593" y="63" width="48" height="32" rx="10"/>
   <rect x="591"
         y="61"
         width="48"
         height="32"
         class="terminal"
         rx="10"/>
   <text class="terminal" x="601" y="81">VAR</text>
   <a xmlns:xlink="http://www.w3.org/1999/xlink"
      xlink:href="#Type"
      xlink:title="Type">
      <rect x="661" y="63" width="50" height="32"/>
      <rect x="659" y="61" width="50" height="32" class="nonterminal"/>
      <text class="nonterminal" x="669" y="81">Type</text>
   </a>
   <a xmlns:xlink="http://www.w3.org/1999/xlink"
      xlink:href="#Name"
      xlink:title="Name">
      <rect x="751" y="63" width="56" height="32"/>
      <rect x="749" y="61" width="56" height="32" class="nonterminal"/>
      <text class="nonterminal" x="759" y="81">Name</text>
   </a>
   <rect x="751" y="19" width="24" height="32" rx="10"/>
   <rect x="749"
         y="17"
         width="24"
         height="32"
         class="terminal"
         rx="10"/>
   <text class="terminal" x="759" y="37">,</text>
   <rect x="847" y="63" width="24" height="32" rx="10"/>
   <rect x="845"
         y="61"
         width="24"
         height="32"
         class="terminal"
         rx="10"/>
   <text class="terminal" x="855" y="81">;</text>
   <rect x="417" y="161" width="104" height="32" rx="10"/>
   <rect x="415"
         y="159"
         width="104"
         height="32"
         class="terminal"
         rx="10"/>
   <text class="terminal" x="425" y="179">PROCEDURE</text>
   <a xmlns:xlink="http://www.w3.org/1999/xlink"
      xlink:href="#Name"
      xlink:title="Name">
      <rect x="541" y="161" width="56" height="32"/>
      <rect x="539" y="159" width="56" height="32" class="nonterminal"/>
      <text class="nonterminal" x="549" y="179">Name</text>
   </a>
   <rect x="617" y="161" width="24" height="32" rx="10"/>
   <rect x="615"
         y="159"
         width="24"
         height="32"
         class="terminal"
         rx="10"/>
   <text class="terminal" x="625" y="179">;</text>
   <a xmlns:xlink="http://www.w3.org/1999/xlink"
      xlink:href="#Block"
      xlink:title="Block">
      <rect x="661" y="161" width="52" height="32"/>
      <rect x="659" y="159" width="52" height="32" class="nonterminal"/>
      <text class="nonterminal" x="669" y="179">Block</text>
   </a>
   <rect x="733" y="161" width="24" height="32" rx="10"/>
   <rect x="731"
         y="159"
         width="24"
         height="32"
         class="terminal"
         rx="10"/>
   <text class="terminal" x="741" y="179">;</text>
   <a xmlns:xlink="http://www.w3.org/1999/xlink"
      xlink:href="#Instruction"
      xlink:title="Instruction">
      <rect x="817" y="161" width="88" height="32"/>
      <rect x="815" y="159" width="88" height="32" class="nonterminal"/>
      <text class="nonterminal" x="825" y="179">Instruction</text>
   </a>
   <path class="line"
         d="m17 77 h2 m40 0 h10 m66 0 h10 m0 0 h10 m50 0 h10 m20 0 h10 m56 0 h10 m0 0 h10 m30 0 h10 m0 0 h10 m56 0 h10 m-222 0 l20 0 m-1 0 q-9 0 -9 -10 l0 -24 q0 -10 10 -10 m202 44 l20 0 m-20 0 q10 0 10 -10 l0 -24 q0 -10 -10 -10 m-202 0 h10 m24 0 h10 m0 0 h158 m20 44 h10 m24 0 h10 m-462 0 l20 0 m-1 0 q-9 0 -9 -10 l0 -56 q0 -10 10 -10 m442 76 l20 0 m-20 0 q10 0 10 -10 l0 -56 q0 -10 -10 -10 m-442 0 h10 m0 0 h432 m-482 76 h20 m482 0 h20 m-522 0 q10 0 10 10 m502 0 q0 -10 10 -10 m-512 10 v14 m502 0 v-14 m-502 14 q0 10 10 10 m482 0 q10 0 10 -10 m-492 10 h10 m0 0 h472 m60 -34 h10 m48 0 h10 m0 0 h10 m50 0 h10 m20 0 h10 m56 0 h10 m-96 0 l20 0 m-1 0 q-9 0 -9 -10 l0 -24 q0 -10 10 -10 m76 44 l20 0 m-20 0 q10 0 10 -10 l0 -24 q0 -10 -10 -10 m-76 0 h10 m24 0 h10 m0 0 h32 m20 44 h10 m24 0 h10 m-318 0 l20 0 m-1 0 q-9 0 -9 -10 l0 -56 q0 -10 10 -10 m298 76 l20 0 m-20 0 q10 0 10 -10 l0 -56 q0 -10 -10 -10 m-298 0 h10 m0 0 h288 m-338 76 h20 m338 0 h20 m-378 0 q10 0 10 10 m358 0 q0 -10 10 -10 m-368 10 v14 m358 0 v-14 m-358 14 q0 10 10 10 m338 0 q10 0 10 -10 m-348 10 h10 m0 0 h328 m22 -34 l2 0 m2 0 l2 0 m2 0 l2 0 m-578 98 l2 0 m2 0 l2 0 m2 0 l2 0 m42 0 h10 m104 0 h10 m0 0 h10 m56 0 h10 m0 0 h10 m24 0 h10 m0 0 h10 m52 0 h10 m0 0 h10 m24 0 h10 m-380 0 l20 0 m-1 0 q-9 0 -9 -10 l0 -12 q0 -10 10 -10 m360 32 l20 0 m-20 0 q10 0 10 -10 l0 -12 q0 -10 -10 -10 m-360 0 h10 m0 0 h350 m-400 32 h20 m400 0 h20 m-440 0 q10 0 10 10 m420 0 q0 -10 10 -10 m-430 10 v14 m420 0 v-14 m-420 14 q0 10 10 10 m400 0 q10 0 10 -10 m-410 10 h10 m0 0 h390 m20 -34 h10 m88 0 h10 m3 0 h-3"/>
   <polygon points="923 175 931 171 931 179"/>
   <polygon points="923 175 915 171 915 179"/>
</svg>
