<?xml version="1.0" encoding="UTF-8"?>
<svg xmlns="http://www.w3.org/2000/svg" width="519" height="169">
   <defs>
      <style type="text/css">
    @namespace "http://www.w3.org/2000/svg";
    .line                 {fill: none; stroke: #332900; stroke-width: 1;}
    .bold-line            {stroke: #141000; shape-rendering: crispEdges; stroke-width: 2;}
    .thin-line            {stroke: #1F1800; shape-rendering: crispEdges}
    .filled               {fill: #332900; stroke: none;}
    text.terminal         {font-family: Verdana, Sans-serif;
                            font-size: 12px;
                            fill: #141000;
                            font-weight: bold;
                          }
    text.nonterminal      {font-family: Verdana, Sans-serif;
                            font-size: 12px;
                            fill: #1A1400;
                            font-weight: normal;
                          }
    text.regexp           {font-family: Verdana, Sans-serif;
                            font-size: 12px;
                            fill: #1F1800;
                            font-weight: normal;
                          }
    rect, circle, polygon {fill: #332900; stroke: #332900;}
    rect.terminal         {fill: #FFDB4D; stroke: #332900; stroke-width: 1;}
    rect.nonterminal      {fill: #FFEC9E; stroke: #332900; stroke-width: 1;}
    rect.text             {fill: none; stroke: none;}
    polygon.regexp        {fill: #FFF4C7; stroke: #332900; stroke-width: 1;}
  </style>
   </defs>
   <polygon points="9 17 1 13 1 21"/>
   <polygon points="17 17 9 13 9 21"/>
   <a xmlns:xlink="http://www.w3.org/1999/xlink"
      xlink:href="#Expression"
      xlink:title="Expression">
      <rect x="51" y="3" width="90" height="32"/>
      <rect x="49" y="1" width="90" height="32" class="nonterminal"/>
      <text class="nonterminal" x="59" y="21">Expression</text>
   </a>
   <rect x="201" y="3" width="30" height="32" rx="10"/>
   <rect x="199"
         y="1"
         width="30"
         height="32"
         class="terminal"
         rx="10"/>
   <text class="terminal" x="209" y="21">&lt;</text>
   <rect x="201" y="47" width="30" height="32" rx="10"/>
   <rect x="199"
         y="45"
         width="30"
         height="32"
         class="terminal"
         rx="10"/>
   <text class="terminal" x="209" y="65">&gt;</text>
   <rect x="291" y="35" width="30" height="32" rx="10"/>
   <rect x="289"
         y="33"
         width="30"
         height="32"
         class="terminal"
         rx="10"/>
   <text class="terminal" x="299" y="53">=</text>
   <rect x="181" y="91" width="40" height="32" rx="10"/>
   <rect x="179"
         y="89"
         width="40"
         height="32"
         class="terminal"
         rx="10"/>
   <text class="terminal" x="189" y="109">==</text>
   <a xmlns:xlink="http://www.w3.org/1999/xlink"
      xlink:href="#Expression"
      xlink:title="Expression">
      <rect x="381" y="3" width="90" height="32"/>
      <rect x="379" y="1" width="90" height="32" class="nonterminal"/>
      <text class="nonterminal" x="389" y="21">Expression</text>
   </a>
   <rect x="51" y="135" width="48" height="32" rx="10"/>
   <rect x="49"
         y="133"
         width="48"
         height="32"
         class="terminal"
         rx="10"/>
   <text class="terminal" x="59" y="153">NOT</text>
   <a xmlns:xlink="http://www.w3.org/1999/xlink"
      xlink:href="#Condition"
      xlink:title="Condition">
      <rect x="119" y="135" width="80" height="32"/>
      <rect x="117" y="133" width="80" height="32" class="nonterminal"/>
      <text class="nonterminal" x="127" y="153">Condition</text>
   </a>
   <polygon points="219 151 226 135 246 135 253 151 246 167 226 167"/>
   <polygon points="217 149 224 133 244 133 251 149 244 165 224 165" class="regexp"/>
   <text class="regexp" x="232" y="153">.</text>
   <path class="line"
         d="m17 17 h2 m20 0 h10 m90 0 h10 m40 0 h10 m30 0 h10 m-70 0 h20 m50 0 h20 m-90 0 q10 0 10 10 m70 0 q0 -10 10 -10 m-80 10 v24 m70 0 v-24 m-70 24 q0 10 10 10 m50 0 q10 0 10 -10 m-60 10 h10 m30 0 h10 m40 -44 h10 m0 0 h40 m-70 0 h20 m50 0 h20 m-90 0 q10 0 10 10 m70 0 q0 -10 10 -10 m-80 10 v12 m70 0 v-12 m-70 12 q0 10 10 10 m50 0 q10 0 10 -10 m-60 10 h10 m30 0 h10 m-180 -32 h20 m180 0 h20 m-220 0 q10 0 10 10 m200 0 q0 -10 10 -10 m-210 10 v68 m200 0 v-68 m-200 68 q0 10 10 10 m180 0 q10 0 10 -10 m-190 10 h10 m40 0 h10 m0 0 h120 m20 -88 h10 m90 0 h10 m-460 0 h20 m440 0 h20 m-480 0 q10 0 10 10 m460 0 q0 -10 10 -10 m-470 10 v112 m460 0 v-112 m-460 112 q0 10 10 10 m440 0 q10 0 10 -10 m-450 10 h10 m48 0 h10 m0 0 h10 m80 0 h10 m0 0 h10 m34 0 h10 m0 0 h218 m23 -132 h-3"/>
   <polygon points="509 17 517 13 517 21"/>
   <polygon points="509 17 501 13 501 21"/>
</svg>
