<?xml version="1.0" encoding="UTF-8"?>
<svg xmlns="http://www.w3.org/2000/svg" width="467" height="247">
   <defs>
      <style type="text/css">
    @namespace "http://www.w3.org/2000/svg";
    .line                 {fill: none; stroke: #332900; stroke-width: 1;}
    .bold-line            {stroke: #141000; shape-rendering: crispEdges; stroke-width: 2;}
    .thin-line            {stroke: #1F1800; shape-rendering: crispEdges}
    .filled               {fill: #332900; stroke: none;}
    text.terminal         {font-family: Verdana, Sans-serif;
                            font-size: 12px;
                            fill: #141000;
                            font-weight: bold;
                          }
    text.nonterminal      {font-family: Verdana, Sans-serif;
                            font-size: 12px;
                            fill: #1A1400;
                            font-weight: normal;
                          }
    text.regexp           {font-family: Verdana, Sans-serif;
                            font-size: 12px;
                            fill: #1F1800;
                            font-weight: normal;
                          }
    rect, circle, polygon {fill: #332900; stroke: #332900;}
    rect.terminal         {fill: #FFDB4D; stroke: #332900; stroke-width: 1;}
    rect.nonterminal      {fill: #FFEC9E; stroke: #332900; stroke-width: 1;}
    rect.text             {fill: none; stroke: none;}
    polygon.regexp        {fill: #FFF4C7; stroke: #332900; stroke-width: 1;}
  </style>
   </defs>
   <polygon points="9 51 1 47 1 55"/>
   <polygon points="17 51 9 47 9 55"/>
   <rect x="51" y="3" width="48" height="32" rx="10"/>
   <rect x="49"
         y="1"
         width="48"
         height="32"
         class="terminal"
         rx="10"/>
   <text class="terminal" x="59" y="21">NOT</text>
   <a xmlns:xlink="http://www.w3.org/1999/xlink"
      xlink:href="#Expression"
      xlink:title="Expression">
      <rect x="139" y="37" width="90" height="32"/>
      <rect x="137" y="35" width="90" height="32" class="nonterminal"/>
      <text class="nonterminal" x="147" y="55">Expression</text>
   </a>
   <rect x="269" y="37" width="40" height="32" rx="10"/>
   <rect x="267"
         y="35"
         width="40"
         height="32"
         class="terminal"
         rx="10"/>
   <text class="terminal" x="277" y="55">==</text>
   <rect x="269" y="81" width="30" height="32" rx="10"/>
   <rect x="267"
         y="79"
         width="30"
         height="32"
         class="terminal"
         rx="10"/>
   <text class="terminal" x="277" y="99">&lt;</text>
   <rect x="269" y="125" width="30" height="32" rx="10"/>
   <rect x="267"
         y="123"
         width="30"
         height="32"
         class="terminal"
         rx="10"/>
   <text class="terminal" x="277" y="143">&gt;</text>
   <rect x="269" y="169" width="40" height="32" rx="10"/>
   <rect x="267"
         y="167"
         width="40"
         height="32"
         class="terminal"
         rx="10"/>
   <text class="terminal" x="277" y="187">&lt;=</text>
   <rect x="269" y="213" width="40" height="32" rx="10"/>
   <rect x="267"
         y="211"
         width="40"
         height="32"
         class="terminal"
         rx="10"/>
   <text class="terminal" x="277" y="231">&gt;=</text>
   <a xmlns:xlink="http://www.w3.org/1999/xlink"
      xlink:href="#Expression"
      xlink:title="Expression">
      <rect x="349" y="37" width="90" height="32"/>
      <rect x="347" y="35" width="90" height="32" class="nonterminal"/>
      <text class="nonterminal" x="357" y="55">Expression</text>
   </a>
   <path class="line"
         d="m17 51 h2 m20 0 h10 m0 0 h58 m-88 0 l20 0 m-1 0 q-9 0 -9 -10 l0 -14 q0 -10 10 -10 m68 34 l20 0 m-20 0 q10 0 10 -10 l0 -14 q0 -10 -10 -10 m-68 0 h10 m48 0 h10 m20 34 h10 m90 0 h10 m20 0 h10 m40 0 h10 m-80 0 h20 m60 0 h20 m-100 0 q10 0 10 10 m80 0 q0 -10 10 -10 m-90 10 v24 m80 0 v-24 m-80 24 q0 10 10 10 m60 0 q10 0 10 -10 m-70 10 h10 m30 0 h10 m0 0 h10 m-70 -10 v20 m80 0 v-20 m-80 20 v24 m80 0 v-24 m-80 24 q0 10 10 10 m60 0 q10 0 10 -10 m-70 10 h10 m30 0 h10 m0 0 h10 m-70 -10 v20 m80 0 v-20 m-80 20 v24 m80 0 v-24 m-80 24 q0 10 10 10 m60 0 q10 0 10 -10 m-70 10 h10 m40 0 h10 m-70 -10 v20 m80 0 v-20 m-80 20 v24 m80 0 v-24 m-80 24 q0 10 10 10 m60 0 q10 0 10 -10 m-70 10 h10 m40 0 h10 m20 -176 h10 m90 0 h10 m3 0 h-3"/>
   <polygon points="457 51 465 47 465 55"/>
   <polygon points="457 51 449 47 449 55"/>
</svg>
