<?xml version="1.0" encoding="UTF-8"?>
<svg xmlns="http://www.w3.org/2000/svg" width="335" height="125">
   <defs>
      <style type="text/css">
    @namespace "http://www.w3.org/2000/svg";
    .line                 {fill: none; stroke: #332900; stroke-width: 1;}
    .bold-line            {stroke: #141000; shape-rendering: crispEdges; stroke-width: 2;}
    .thin-line            {stroke: #1F1800; shape-rendering: crispEdges}
    .filled               {fill: #332900; stroke: none;}
    text.terminal         {font-family: Verdana, Sans-serif;
                            font-size: 12px;
                            fill: #141000;
                            font-weight: bold;
                          }
    text.nonterminal      {font-family: Verdana, Sans-serif;
                            font-size: 12px;
                            fill: #1A1400;
                            font-weight: normal;
                          }
    text.regexp           {font-family: Verdana, Sans-serif;
                            font-size: 12px;
                            fill: #1F1800;
                            font-weight: normal;
                          }
    rect, circle, polygon {fill: #332900; stroke: #332900;}
    rect.terminal         {fill: #FFDB4D; stroke: #332900; stroke-width: 1;}
    rect.nonterminal      {fill: #FFEC9E; stroke: #332900; stroke-width: 1;}
    rect.text             {fill: none; stroke: none;}
    polygon.regexp        {fill: #FFF4C7; stroke: #332900; stroke-width: 1;}
  </style>
   </defs>
   <polygon points="9 17 1 13 1 21"/>
   <polygon points="17 17 9 13 9 21"/>
   <a xmlns:xlink="http://www.w3.org/1999/xlink"
      xlink:href="#Name"
      xlink:title="Name">
      <rect x="51" y="3" width="56" height="32"/>
      <rect x="49" y="1" width="56" height="32" class="nonterminal"/>
      <text class="nonterminal" x="59" y="21">Name</text>
   </a>
   <a xmlns:xlink="http://www.w3.org/1999/xlink"
      xlink:href="#Number"
      xlink:title="Number">
      <rect x="51" y="47" width="70" height="32"/>
      <rect x="49" y="45" width="70" height="32" class="nonterminal"/>
      <text class="nonterminal" x="59" y="65">Number</text>
   </a>
   <rect x="51" y="91" width="26" height="32" rx="10"/>
   <rect x="49"
         y="89"
         width="26"
         height="32"
         class="terminal"
         rx="10"/>
   <text class="terminal" x="59" y="109">(</text>
   <a xmlns:xlink="http://www.w3.org/1999/xlink"
      xlink:href="#Expression"
      xlink:title="Expression">
      <rect x="97" y="91" width="90" height="32"/>
      <rect x="95" y="89" width="90" height="32" class="nonterminal"/>
      <text class="nonterminal" x="105" y="109">Expression</text>
   </a>
   <rect x="207" y="91" width="26" height="32" rx="10"/>
   <rect x="205"
         y="89"
         width="26"
         height="32"
         class="terminal"
         rx="10"/>
   <text class="terminal" x="215" y="109">)</text>
   <polygon points="253 107 260 91 280 91 287 107 280 123 260 123"/>
   <polygon points="251 105 258 89 278 89 285 105 278 121 258 121" class="regexp"/>
   <text class="regexp" x="266" y="109">.</text>
   <path class="line"
         d="m17 17 h2 m20 0 h10 m56 0 h10 m0 0 h180 m-276 0 h20 m256 0 h20 m-296 0 q10 0 10 10 m276 0 q0 -10 10 -10 m-286 10 v24 m276 0 v-24 m-276 24 q0 10 10 10 m256 0 q10 0 10 -10 m-266 10 h10 m70 0 h10 m0 0 h166 m-266 -10 v20 m276 0 v-20 m-276 20 v24 m276 0 v-24 m-276 24 q0 10 10 10 m256 0 q10 0 10 -10 m-266 10 h10 m26 0 h10 m0 0 h10 m90 0 h10 m0 0 h10 m26 0 h10 m0 0 h10 m34 0 h10 m23 -88 h-3"/>
   <polygon points="325 17 333 13 333 21"/>
   <polygon points="325 17 317 13 317 21"/>
</svg>
