<?xml version="1.0" encoding="UTF-8"?>
<svg xmlns="http://www.w3.org/2000/svg" width="473" height="345">
   <defs>
      <style type="text/css">
    @namespace "http://www.w3.org/2000/svg";
    .line                 {fill: none; stroke: #332900; stroke-width: 1;}
    .bold-line            {stroke: #141000; shape-rendering: crispEdges; stroke-width: 2;}
    .thin-line            {stroke: #1F1800; shape-rendering: crispEdges}
    .filled               {fill: #332900; stroke: none;}
    text.terminal         {font-family: Verdana, Sans-serif;
                            font-size: 12px;
                            fill: #141000;
                            font-weight: bold;
                          }
    text.nonterminal      {font-family: Verdana, Sans-serif;
                            font-size: 12px;
                            fill: #1A1400;
                            font-weight: normal;
                          }
    text.regexp           {font-family: Verdana, Sans-serif;
                            font-size: 12px;
                            fill: #1F1800;
                            font-weight: normal;
                          }
    rect, circle, polygon {fill: #332900; stroke: #332900;}
    rect.terminal         {fill: #FFDB4D; stroke: #332900; stroke-width: 1;}
    rect.nonterminal      {fill: #FFEC9E; stroke: #332900; stroke-width: 1;}
    rect.text             {fill: none; stroke: none;}
    polygon.regexp        {fill: #FFF4C7; stroke: #332900; stroke-width: 1;}
  </style>
   </defs>
   <polygon points="9 17 1 13 1 21"/>
   <polygon points="17 17 9 13 9 21"/>
   <a xmlns:xlink="http://www.w3.org/1999/xlink"
      xlink:href="#Name"
      xlink:title="Name">
      <rect x="71" y="3" width="56" height="32"/>
      <rect x="69" y="1" width="56" height="32" class="nonterminal"/>
      <text class="nonterminal" x="79" y="21">Name</text>
   </a>
   <rect x="147" y="3" width="30" height="32" rx="10"/>
   <rect x="145"
         y="1"
         width="30"
         height="32"
         class="terminal"
         rx="10"/>
   <text class="terminal" x="155" y="21">=</text>
   <rect x="71" y="47" width="66" height="32" rx="10"/>
   <rect x="69"
         y="45"
         width="66"
         height="32"
         class="terminal"
         rx="10"/>
   <text class="terminal" x="79" y="65">WRITE</text>
   <a xmlns:xlink="http://www.w3.org/1999/xlink"
      xlink:href="#Expression"
      xlink:title="Expression">
      <rect x="217" y="3" width="90" height="32"/>
      <rect x="215" y="1" width="90" height="32" class="nonterminal"/>
      <text class="nonterminal" x="225" y="21">Expression</text>
   </a>
   <rect x="71" y="91" width="54" height="32" rx="10"/>
   <rect x="69"
         y="89"
         width="54"
         height="32"
         class="terminal"
         rx="10"/>
   <text class="terminal" x="79" y="109">CALL</text>
   <rect x="71" y="135" width="56" height="32" rx="10"/>
   <rect x="69"
         y="133"
         width="56"
         height="32"
         class="terminal"
         rx="10"/>
   <text class="terminal" x="79" y="153">READ</text>
   <a xmlns:xlink="http://www.w3.org/1999/xlink"
      xlink:href="#Name"
      xlink:title="Name">
      <rect x="167" y="91" width="56" height="32"/>
      <rect x="165" y="89" width="56" height="32" class="nonterminal"/>
      <text class="nonterminal" x="175" y="109">Name</text>
   </a>
   <rect x="51" y="223" width="64" height="32" rx="10"/>
   <rect x="49"
         y="221"
         width="64"
         height="32"
         class="terminal"
         rx="10"/>
   <text class="terminal" x="59" y="241">BEGIN</text>
   <a xmlns:xlink="http://www.w3.org/1999/xlink"
      xlink:href="#Instruction"
      xlink:title="Instruction">
      <rect x="155" y="223" width="88" height="32"/>
      <rect x="153" y="221" width="88" height="32" class="nonterminal"/>
      <text class="nonterminal" x="163" y="241">Instruction</text>
   </a>
   <rect x="155" y="179" width="24" height="32" rx="10"/>
   <rect x="153"
         y="177"
         width="24"
         height="32"
         class="terminal"
         rx="10"/>
   <text class="terminal" x="163" y="197">;</text>
   <rect x="283" y="223" width="48" height="32" rx="10"/>
   <rect x="281"
         y="221"
         width="48"
         height="32"
         class="terminal"
         rx="10"/>
   <text class="terminal" x="291" y="241">END</text>
   <rect x="71" y="267" width="34" height="32" rx="10"/>
   <rect x="69"
         y="265"
         width="34"
         height="32"
         class="terminal"
         rx="10"/>
   <text class="terminal" x="79" y="285">IF</text>
   <a xmlns:xlink="http://www.w3.org/1999/xlink"
      xlink:href="#Condition"
      xlink:title="Condition">
      <rect x="125" y="267" width="80" height="32"/>
      <rect x="123" y="265" width="80" height="32" class="nonterminal"/>
      <text class="nonterminal" x="133" y="285">Condition</text>
   </a>
   <rect x="225" y="267" width="56" height="32" rx="10"/>
   <rect x="223"
         y="265"
         width="56"
         height="32"
         class="terminal"
         rx="10"/>
   <text class="terminal" x="233" y="285">THEN</text>
   <rect x="71" y="311" width="66" height="32" rx="10"/>
   <rect x="69"
         y="309"
         width="66"
         height="32"
         class="terminal"
         rx="10"/>
   <text class="terminal" x="79" y="329">WHILE</text>
   <a xmlns:xlink="http://www.w3.org/1999/xlink"
      xlink:href="#Condition"
      xlink:title="Condition">
      <rect x="157" y="311" width="80" height="32"/>
      <rect x="155" y="309" width="80" height="32" class="nonterminal"/>
      <text class="nonterminal" x="165" y="329">Condition</text>
   </a>
   <rect x="257" y="311" width="40" height="32" rx="10"/>
   <rect x="255"
         y="309"
         width="40"
         height="32"
         class="terminal"
         rx="10"/>
   <text class="terminal" x="265" y="329">DO</text>
   <a xmlns:xlink="http://www.w3.org/1999/xlink"
      xlink:href="#Instruction"
      xlink:title="Instruction">
      <rect x="337" y="267" width="88" height="32"/>
      <rect x="335" y="265" width="88" height="32" class="nonterminal"/>
      <text class="nonterminal" x="345" y="285">Instruction</text>
   </a>
   <path class="line"
         d="m17 17 h2 m40 0 h10 m56 0 h10 m0 0 h10 m30 0 h10 m-146 0 h20 m126 0 h20 m-166 0 q10 0 10 10 m146 0 q0 -10 10 -10 m-156 10 v24 m146 0 v-24 m-146 24 q0 10 10 10 m126 0 q10 0 10 -10 m-136 10 h10 m66 0 h10 m0 0 h40 m20 -44 h10 m90 0 h10 m0 0 h118 m-414 0 h20 m394 0 h20 m-434 0 q10 0 10 10 m414 0 q0 -10 10 -10 m-424 10 v68 m414 0 v-68 m-414 68 q0 10 10 10 m394 0 q10 0 10 -10 m-384 10 h10 m54 0 h10 m0 0 h2 m-96 0 h20 m76 0 h20 m-116 0 q10 0 10 10 m96 0 q0 -10 10 -10 m-106 10 v24 m96 0 v-24 m-96 24 q0 10 10 10 m76 0 q10 0 10 -10 m-86 10 h10 m56 0 h10 m20 -44 h10 m56 0 h10 m0 0 h202 m-404 -10 v20 m414 0 v-20 m-414 20 v112 m414 0 v-112 m-414 112 q0 10 10 10 m394 0 q10 0 10 -10 m-404 10 h10 m64 0 h10 m20 0 h10 m88 0 h10 m-128 0 l20 0 m-1 0 q-9 0 -9 -10 l0 -24 q0 -10 10 -10 m108 44 l20 0 m-20 0 q10 0 10 -10 l0 -24 q0 -10 -10 -10 m-108 0 h10 m24 0 h10 m0 0 h64 m20 44 h10 m48 0 h10 m0 0 h94 m-404 -10 v20 m414 0 v-20 m-414 20 v24 m414 0 v-24 m-414 24 q0 10 10 10 m394 0 q10 0 10 -10 m-384 10 h10 m34 0 h10 m0 0 h10 m80 0 h10 m0 0 h10 m56 0 h10 m0 0 h16 m-266 0 h20 m246 0 h20 m-286 0 q10 0 10 10 m266 0 q0 -10 10 -10 m-276 10 v24 m266 0 v-24 m-266 24 q0 10 10 10 m246 0 q10 0 10 -10 m-256 10 h10 m66 0 h10 m0 0 h10 m80 0 h10 m0 0 h10 m40 0 h10 m20 -44 h10 m88 0 h10 m23 -264 h-3"/>
   <polygon points="463 17 471 13 471 21"/>
   <polygon points="463 17 455 13 455 21"/>
</svg>
