<?xml version="1.0" encoding="UTF-8"?>
<svg xmlns="http://www.w3.org/2000/svg" width="259" height="257">
   <defs>
      <style type="text/css">
    @namespace "http://www.w3.org/2000/svg";
    .line                 {fill: none; stroke: #332900; stroke-width: 1;}
    .bold-line            {stroke: #141000; shape-rendering: crispEdges; stroke-width: 2;}
    .thin-line            {stroke: #1F1800; shape-rendering: crispEdges}
    .filled               {fill: #332900; stroke: none;}
    text.terminal         {font-family: Verdana, Sans-serif;
                            font-size: 12px;
                            fill: #141000;
                            font-weight: bold;
                          }
    text.nonterminal      {font-family: Verdana, Sans-serif;
                            font-size: 12px;
                            fill: #1A1400;
                            font-weight: normal;
                          }
    text.regexp           {font-family: Verdana, Sans-serif;
                            font-size: 12px;
                            fill: #1F1800;
                            font-weight: normal;
                          }
    rect, circle, polygon {fill: #332900; stroke: #332900;}
    rect.terminal         {fill: #FFDB4D; stroke: #332900; stroke-width: 1;}
    rect.nonterminal      {fill: #FFEC9E; stroke: #332900; stroke-width: 1;}
    rect.text             {fill: none; stroke: none;}
    polygon.regexp        {fill: #FFF4C7; stroke: #332900; stroke-width: 1;}
  </style>
   </defs>
   <polygon points="9 17 1 13 1 21"/>
   <polygon points="17 17 9 13 9 21"/>
   <rect x="51" y="3" width="74" height="32" rx="10"/>
   <rect x="49"
         y="1"
         width="74"
         height="32"
         class="terminal"
         rx="10"/>
   <text class="terminal" x="59" y="21">SPARSE</text>
   <rect x="51" y="47" width="86" height="32" rx="10"/>
   <rect x="49"
         y="45"
         width="86"
         height="32"
         class="terminal"
         rx="10"/>
   <text class="terminal" x="59" y="65">IDENTITY</text>
   <rect x="51" y="91" width="94" height="32" rx="10"/>
   <rect x="49"
         y="89"
         width="94"
         height="32"
         class="terminal"
         rx="10"/>
   <text class="terminal" x="59" y="109">DIAGONAL</text>
   <rect x="51" y="135" width="154" height="32" rx="10"/>
   <rect x="49"
         y="133"
         width="154"
         height="32"
         class="terminal"
         rx="10"/>
   <text class="terminal" x="59" y="153">UPPERTRIANGULAR</text>
   <rect x="51" y="179" width="160" height="32" rx="10"/>
   <rect x="49"
         y="177"
         width="160"
         height="32"
         class="terminal"
         rx="10"/>
   <text class="terminal" x="59" y="197">LOWERTRIANGULAR</text>
   <rect x="51" y="223" width="118" height="32" rx="10"/>
   <rect x="49"
         y="221"
         width="118"
         height="32"
         class="terminal"
         rx="10"/>
   <text class="terminal" x="59" y="241">ORTHOGONAL</text>
   <path class="line"
         d="m17 17 h2 m20 0 h10 m74 0 h10 m0 0 h86 m-200 0 h20 m180 0 h20 m-220 0 q10 0 10 10 m200 0 q0 -10 10 -10 m-210 10 v24 m200 0 v-24 m-200 24 q0 10 10 10 m180 0 q10 0 10 -10 m-190 10 h10 m86 0 h10 m0 0 h74 m-190 -10 v20 m200 0 v-20 m-200 20 v24 m200 0 v-24 m-200 24 q0 10 10 10 m180 0 q10 0 10 -10 m-190 10 h10 m94 0 h10 m0 0 h66 m-190 -10 v20 m200 0 v-20 m-200 20 v24 m200 0 v-24 m-200 24 q0 10 10 10 m180 0 q10 0 10 -10 m-190 10 h10 m154 0 h10 m0 0 h6 m-190 -10 v20 m200 0 v-20 m-200 20 v24 m200 0 v-24 m-200 24 q0 10 10 10 m180 0 q10 0 10 -10 m-190 10 h10 m160 0 h10 m-190 -10 v20 m200 0 v-20 m-200 20 v24 m200 0 v-24 m-200 24 q0 10 10 10 m180 0 q10 0 10 -10 m-190 10 h10 m118 0 h10 m0 0 h42 m23 -220 h-3"/>
   <polygon points="249 17 257 13 257 21"/>
   <polygon points="249 17 241 13 241 21"/>
</svg>
