<?xml version="1.0" encoding="UTF-8"?>
<svg xmlns="http://www.w3.org/2000/svg" width="775" height="449">
   <defs>
      <style type="text/css">
    @namespace "http://www.w3.org/2000/svg";
    .line                 {fill: none; stroke: #332900; stroke-width: 1;}
    .bold-line            {stroke: #141000; shape-rendering: crispEdges; stroke-width: 2;}
    .thin-line            {stroke: #1F1800; shape-rendering: crispEdges}
    .filled               {fill: #332900; stroke: none;}
    text.terminal         {font-family: Verdana, Sans-serif;
                            font-size: 12px;
                            fill: #141000;
                            font-weight: bold;
                          }
    text.nonterminal      {font-family: Verdana, Sans-serif;
                            font-size: 12px;
                            fill: #1A1400;
                            font-weight: normal;
                          }
    text.regexp           {font-family: Verdana, Sans-serif;
                            font-size: 12px;
                            fill: #1F1800;
                            font-weight: normal;
                          }
    rect, circle, polygon {fill: #332900; stroke: #332900;}
    rect.terminal         {fill: #FFDB4D; stroke: #332900; stroke-width: 1;}
    rect.nonterminal      {fill: #FFEC9E; stroke: #332900; stroke-width: 1;}
    rect.text             {fill: none; stroke: none;}
    polygon.regexp        {fill: #FFF4C7; stroke: #332900; stroke-width: 1;}
  </style>
   </defs>
   <polygon points="9 33 1 29 1 37"/>
   <polygon points="17 33 9 29 9 37"/>
   <rect x="51" y="19" width="54" height="32" rx="10"/>
   <rect x="49"
         y="17"
         width="54"
         height="32"
         class="terminal"
         rx="10"/>
   <text class="terminal" x="59" y="37">INT8</text>
   <rect x="51" y="63" width="62" height="32" rx="10"/>
   <rect x="49"
         y="61"
         width="62"
         height="32"
         class="terminal"
         rx="10"/>
   <text class="terminal" x="59" y="81">INT16</text>
   <rect x="51" y="107" width="62" height="32" rx="10"/>
   <rect x="49"
         y="105"
         width="62"
         height="32"
         class="terminal"
         rx="10"/>
   <text class="terminal" x="59" y="125">INT32</text>
   <rect x="51" y="151" width="62" height="32" rx="10"/>
   <rect x="49"
         y="149"
         width="62"
         height="32"
         class="terminal"
         rx="10"/>
   <text class="terminal" x="59" y="169">INT64</text>
   <rect x="51" y="195" width="72" height="32" rx="10"/>
   <rect x="49"
         y="193"
         width="72"
         height="32"
         class="terminal"
         rx="10"/>
   <text class="terminal" x="59" y="213">INT128</text>
   <rect x="51" y="239" width="74" height="32" rx="10"/>
   <rect x="49"
         y="237"
         width="74"
         height="32"
         class="terminal"
         rx="10"/>
   <text class="terminal" x="59" y="257">FLOAT8</text>
   <rect x="51" y="283" width="82" height="32" rx="10"/>
   <rect x="49"
         y="281"
         width="82"
         height="32"
         class="terminal"
         rx="10"/>
   <text class="terminal" x="59" y="301">FLOAT16</text>
   <rect x="51" y="327" width="82" height="32" rx="10"/>
   <rect x="49"
         y="325"
         width="82"
         height="32"
         class="terminal"
         rx="10"/>
   <text class="terminal" x="59" y="345">FLOAT32</text>
   <rect x="51" y="371" width="82" height="32" rx="10"/>
   <rect x="49"
         y="369"
         width="82"
         height="32"
         class="terminal"
         rx="10"/>
   <text class="terminal" x="59" y="389">FLOAT64</text>
   <rect x="51" y="415" width="92" height="32" rx="10"/>
   <rect x="49"
         y="413"
         width="92"
         height="32"
         class="terminal"
         rx="10"/>
   <text class="terminal" x="59" y="433">FLOAT128</text>
   <a xmlns:xlink="http://www.w3.org/1999/xlink"
      xlink:href="#MatrixType"
      xlink:title="MatrixType">
      <rect x="263" y="83" width="88" height="32"/>
      <rect x="261" y="81" width="88" height="32" class="nonterminal"/>
      <text class="nonterminal" x="271" y="101">MatrixType</text>
   </a>
   <rect x="391" y="51" width="26" height="32" rx="10"/>
   <rect x="389"
         y="49"
         width="26"
         height="32"
         class="terminal"
         rx="10"/>
   <text class="terminal" x="399" y="69">[</text>
   <a xmlns:xlink="http://www.w3.org/1999/xlink"
      xlink:href="#Size"
      xlink:title="Size">
      <rect x="437" y="51" width="46" height="32"/>
      <rect x="435" y="49" width="46" height="32" class="nonterminal"/>
      <text class="nonterminal" x="445" y="69">Size</text>
   </a>
   <rect x="503" y="51" width="26" height="32" rx="10"/>
   <rect x="501"
         y="49"
         width="26"
         height="32"
         class="terminal"
         rx="10"/>
   <text class="terminal" x="511" y="69">]</text>
   <rect x="569" y="19" width="26" height="32" rx="10"/>
   <rect x="567"
         y="17"
         width="26"
         height="32"
         class="terminal"
         rx="10"/>
   <text class="terminal" x="577" y="37">[</text>
   <a xmlns:xlink="http://www.w3.org/1999/xlink"
      xlink:href="#Size"
      xlink:title="Size">
      <rect x="615" y="19" width="46" height="32"/>
      <rect x="613" y="17" width="46" height="32" class="nonterminal"/>
      <text class="nonterminal" x="623" y="37">Size</text>
   </a>
   <rect x="681" y="19" width="26" height="32" rx="10"/>
   <rect x="679"
         y="17"
         width="26"
         height="32"
         class="terminal"
         rx="10"/>
   <text class="terminal" x="689" y="37">]</text>
   <path class="line"
         d="m17 33 h2 m20 0 h10 m54 0 h10 m0 0 h38 m-132 0 h20 m112 0 h20 m-152 0 q10 0 10 10 m132 0 q0 -10 10 -10 m-142 10 v24 m132 0 v-24 m-132 24 q0 10 10 10 m112 0 q10 0 10 -10 m-122 10 h10 m62 0 h10 m0 0 h30 m-122 -10 v20 m132 0 v-20 m-132 20 v24 m132 0 v-24 m-132 24 q0 10 10 10 m112 0 q10 0 10 -10 m-122 10 h10 m62 0 h10 m0 0 h30 m-122 -10 v20 m132 0 v-20 m-132 20 v24 m132 0 v-24 m-132 24 q0 10 10 10 m112 0 q10 0 10 -10 m-122 10 h10 m62 0 h10 m0 0 h30 m-122 -10 v20 m132 0 v-20 m-132 20 v24 m132 0 v-24 m-132 24 q0 10 10 10 m112 0 q10 0 10 -10 m-122 10 h10 m72 0 h10 m0 0 h20 m-122 -10 v20 m132 0 v-20 m-132 20 v24 m132 0 v-24 m-132 24 q0 10 10 10 m112 0 q10 0 10 -10 m-122 10 h10 m74 0 h10 m0 0 h18 m-122 -10 v20 m132 0 v-20 m-132 20 v24 m132 0 v-24 m-132 24 q0 10 10 10 m112 0 q10 0 10 -10 m-122 10 h10 m82 0 h10 m0 0 h10 m-122 -10 v20 m132 0 v-20 m-132 20 v24 m132 0 v-24 m-132 24 q0 10 10 10 m112 0 q10 0 10 -10 m-122 10 h10 m82 0 h10 m0 0 h10 m-122 -10 v20 m132 0 v-20 m-132 20 v24 m132 0 v-24 m-132 24 q0 10 10 10 m112 0 q10 0 10 -10 m-122 10 h10 m82 0 h10 m0 0 h10 m-122 -10 v20 m132 0 v-20 m-132 20 v24 m132 0 v-24 m-132 24 q0 10 10 10 m112 0 q10 0 10 -10 m-122 10 h10 m92 0 h10 m80 -396 h10 m0 0 h296 m-326 0 h20 m306 0 h20 m-346 0 q10 0 10 10 m326 0 q0 -10 10 -10 m-336 10 v12 m326 0 v-12 m-326 12 q0 10 10 10 m306 0 q10 0 10 -10 m-296 10 h10 m0 0 h98 m-128 0 h20 m108 0 h20 m-148 0 q10 0 10 10 m128 0 q0 -10 10 -10 m-138 10 v12 m128 0 v-12 m-128 12 q0 10 10 10 m108 0 q10 0 10 -10 m-118 10 h10 m88 0 h10 m20 -32 h10 m26 0 h10 m0 0 h10 m46 0 h10 m0 0 h10 m26 0 h10 m20 -32 h10 m26 0 h10 m0 0 h10 m46 0 h10 m0 0 h10 m26 0 h10 m-524 0 l20 0 m-1 0 q-9 0 -9 -10 l0 -12 q0 -10 10 -10 m504 32 l20 0 m-20 0 q10 0 10 -10 l0 -12 q0 -10 -10 -10 m-504 0 h10 m0 0 h494 m-544 32 h20 m544 0 h20 m-584 0 q10 0 10 10 m564 0 q0 -10 10 -10 m-574 10 v78 m564 0 v-78 m-564 78 q0 10 10 10 m544 0 q10 0 10 -10 m-554 10 h10 m0 0 h534 m23 -98 h-3"/>
   <polygon points="765 33 773 29 773 37"/>
   <polygon points="765 33 757 29 757 37"/>
</svg>
