<?xml version="1.0" encoding="UTF-8"?>
<svg xmlns="http://www.w3.org/2000/svg" width="603" height="69">
   <defs>
      <style type="text/css">
    @namespace "http://www.w3.org/2000/svg";
    .line                 {fill: none; stroke: #332900; stroke-width: 1;}
    .bold-line            {stroke: #141000; shape-rendering: crispEdges; stroke-width: 2;}
    .thin-line            {stroke: #1F1800; shape-rendering: crispEdges}
    .filled               {fill: #332900; stroke: none;}
    text.terminal         {font-family: Verdana, Sans-serif;
                            font-size: 12px;
                            fill: #141000;
                            font-weight: bold;
                          }
    text.nonterminal      {font-family: Verdana, Sans-serif;
                            font-size: 12px;
                            fill: #1A1400;
                            font-weight: normal;
                          }
    text.regexp           {font-family: Verdana, Sans-serif;
                            font-size: 12px;
                            fill: #1F1800;
                            font-weight: normal;
                          }
    rect, circle, polygon {fill: #332900; stroke: #332900;}
    rect.terminal         {fill: #FFDB4D; stroke: #332900; stroke-width: 1;}
    rect.nonterminal      {fill: #FFEC9E; stroke: #332900; stroke-width: 1;}
    rect.text             {fill: none; stroke: none;}
    polygon.regexp        {fill: #FFF4C7; stroke: #332900; stroke-width: 1;}
  </style>
   </defs>
   <polygon points="9 17 1 13 1 21"/>
   <polygon points="17 17 9 13 9 21"/>
   <a xmlns:xlink="http://www.w3.org/1999/xlink"
      xlink:href="#NumericType"
      xlink:title="NumericType">
      <rect x="31" y="3" width="100" height="32"/>
      <rect x="29" y="1" width="100" height="32" class="nonterminal"/>
      <text class="nonterminal" x="39" y="21">NumericType</text>
   </a>
   <rect x="151" y="3" width="48" height="32" rx="10"/>
   <rect x="149"
         y="1"
         width="48"
         height="32"
         class="terminal"
         rx="10"/>
   <text class="terminal" x="159" y="21">DIM</text>
   <rect x="219" y="3" width="26" height="32" rx="10"/>
   <rect x="217"
         y="1"
         width="26"
         height="32"
         class="terminal"
         rx="10"/>
   <text class="terminal" x="227" y="21">(</text>
   <a xmlns:xlink="http://www.w3.org/1999/xlink"
      xlink:href="#Dimensions"
      xlink:title="Dimensions">
      <rect x="265" y="3" width="92" height="32"/>
      <rect x="263" y="1" width="92" height="32" class="nonterminal"/>
      <text class="nonterminal" x="273" y="21">Dimensions</text>
   </a>
   <rect x="377" y="3" width="26" height="32" rx="10"/>
   <rect x="375"
         y="1"
         width="26"
         height="32"
         class="terminal"
         rx="10"/>
   <text class="terminal" x="385" y="21">)</text>
   <a xmlns:xlink="http://www.w3.org/1999/xlink"
      xlink:href="#MatrixSpecifier"
      xlink:title="MatrixSpecifier">
      <rect x="443" y="35" width="112" height="32"/>
      <rect x="441" y="33" width="112" height="32" class="nonterminal"/>
      <text class="nonterminal" x="451" y="53">MatrixSpecifier</text>
   </a>
   <path class="line"
         d="m17 17 h2 m0 0 h10 m100 0 h10 m0 0 h10 m48 0 h10 m0 0 h10 m26 0 h10 m0 0 h10 m92 0 h10 m0 0 h10 m26 0 h10 m20 0 h10 m0 0 h122 m-152 0 h20 m132 0 h20 m-172 0 q10 0 10 10 m152 0 q0 -10 10 -10 m-162 10 v12 m152 0 v-12 m-152 12 q0 10 10 10 m132 0 q10 0 10 -10 m-142 10 h10 m112 0 h10 m23 -32 h-3"/>
   <polygon points="593 17 601 13 601 21"/>
   <polygon points="593 17 585 13 585 21"/>
</svg>
