<?xml version="1.0" encoding="UTF-8"?>
<svg xmlns="http://www.w3.org/2000/svg" width="551" height="289">
   <defs>
      <style type="text/css">
    @namespace "http://www.w3.org/2000/svg";
    .line                 {fill: none; stroke: #332900; stroke-width: 1;}
    .bold-line            {stroke: #141000; shape-rendering: crispEdges; stroke-width: 2;}
    .thin-line            {stroke: #1F1800; shape-rendering: crispEdges}
    .filled               {fill: #332900; stroke: none;}
    text.terminal         {font-family: Verdana, Sans-serif;
                            font-size: 12px;
                            fill: #141000;
                            font-weight: bold;
                          }
    text.nonterminal      {font-family: Verdana, Sans-serif;
                            font-size: 12px;
                            fill: #1A1400;
                            font-weight: normal;
                          }
    text.regexp           {font-family: Verdana, Sans-serif;
                            font-size: 12px;
                            fill: #1F1800;
                            font-weight: normal;
                          }
    rect, circle, polygon {fill: #332900; stroke: #332900;}
    rect.terminal         {fill: #FFDB4D; stroke: #332900; stroke-width: 1;}
    rect.nonterminal      {fill: #FFEC9E; stroke: #332900; stroke-width: 1;}
    rect.text             {fill: none; stroke: none;}
    polygon.regexp        {fill: #FFF4C7; stroke: #332900; stroke-width: 1;}
  </style>
   </defs>
   <polygon points="9 17 1 13 1 21"/>
   <polygon points="17 17 9 13 9 21"/>
   <a xmlns:xlink="http://www.w3.org/1999/xlink"
      xlink:href="#Name"
      xlink:title="Name">
      <rect x="51" y="3" width="56" height="32"/>
      <rect x="49" y="1" width="56" height="32" class="nonterminal"/>
      <text class="nonterminal" x="59" y="21">Name</text>
   </a>
   <rect x="147" y="35" width="26" height="32" rx="10"/>
   <rect x="145"
         y="33"
         width="26"
         height="32"
         class="terminal"
         rx="10"/>
   <text class="terminal" x="155" y="53">[</text>
   <a xmlns:xlink="http://www.w3.org/1999/xlink"
      xlink:href="#Expression"
      xlink:title="Expression">
      <rect x="193" y="35" width="90" height="32"/>
      <rect x="191" y="33" width="90" height="32" class="nonterminal"/>
      <text class="nonterminal" x="201" y="53">Expression</text>
   </a>
   <rect x="303" y="35" width="24" height="32" rx="10"/>
   <rect x="301"
         y="33"
         width="24"
         height="32"
         class="terminal"
         rx="10"/>
   <text class="terminal" x="311" y="53">,</text>
   <a xmlns:xlink="http://www.w3.org/1999/xlink"
      xlink:href="#Expression"
      xlink:title="Expression">
      <rect x="347" y="35" width="90" height="32"/>
      <rect x="345" y="33" width="90" height="32" class="nonterminal"/>
      <text class="nonterminal" x="355" y="53">Expression</text>
   </a>
   <rect x="457" y="35" width="26" height="32" rx="10"/>
   <rect x="455"
         y="33"
         width="26"
         height="32"
         class="terminal"
         rx="10"/>
   <text class="terminal" x="465" y="53">]</text>
   <a xmlns:xlink="http://www.w3.org/1999/xlink"
      xlink:href="#Number"
      xlink:title="Number">
      <rect x="51" y="79" width="70" height="32"/>
      <rect x="49" y="77" width="70" height="32" class="nonterminal"/>
      <text class="nonterminal" x="59" y="97">Number</text>
   </a>
   <rect x="51" y="123" width="26" height="32" rx="10"/>
   <rect x="49"
         y="121"
         width="26"
         height="32"
         class="terminal"
         rx="10"/>
   <text class="terminal" x="59" y="141">(</text>
   <a xmlns:xlink="http://www.w3.org/1999/xlink"
      xlink:href="#Expression"
      xlink:title="Expression">
      <rect x="97" y="123" width="90" height="32"/>
      <rect x="95" y="121" width="90" height="32" class="nonterminal"/>
      <text class="nonterminal" x="105" y="141">Expression</text>
   </a>
   <rect x="207" y="123" width="26" height="32" rx="10"/>
   <rect x="205"
         y="121"
         width="26"
         height="32"
         class="terminal"
         rx="10"/>
   <text class="terminal" x="215" y="141">)</text>
   <a xmlns:xlink="http://www.w3.org/1999/xlink"
      xlink:href="#VectorValue"
      xlink:title="VectorValue">
      <rect x="51" y="167" width="96" height="32"/>
      <rect x="49" y="165" width="96" height="32" class="nonterminal"/>
      <text class="nonterminal" x="59" y="185">VectorValue</text>
   </a>
   <a xmlns:xlink="http://www.w3.org/1999/xlink"
      xlink:href="#MatrixValue"
      xlink:title="MatrixValue">
      <rect x="51" y="211" width="94" height="32"/>
      <rect x="49" y="209" width="94" height="32" class="nonterminal"/>
      <text class="nonterminal" x="59" y="229">MatrixValue</text>
   </a>
   <a xmlns:xlink="http://www.w3.org/1999/xlink"
      xlink:href="#MatrixGenerator"
      xlink:title="MatrixGenerator">
      <rect x="51" y="255" width="122" height="32"/>
      <rect x="49" y="253" width="122" height="32" class="nonterminal"/>
      <text class="nonterminal" x="59" y="273">MatrixGenerator</text>
   </a>
   <path class="line"
         d="m17 17 h2 m20 0 h10 m56 0 h10 m20 0 h10 m0 0 h346 m-376 0 h20 m356 0 h20 m-396 0 q10 0 10 10 m376 0 q0 -10 10 -10 m-386 10 v12 m376 0 v-12 m-376 12 q0 10 10 10 m356 0 q10 0 10 -10 m-366 10 h10 m26 0 h10 m0 0 h10 m90 0 h10 m0 0 h10 m24 0 h10 m0 0 h10 m90 0 h10 m0 0 h10 m26 0 h10 m-472 -32 h20 m472 0 h20 m-512 0 q10 0 10 10 m492 0 q0 -10 10 -10 m-502 10 v56 m492 0 v-56 m-492 56 q0 10 10 10 m472 0 q10 0 10 -10 m-482 10 h10 m70 0 h10 m0 0 h382 m-482 -10 v20 m492 0 v-20 m-492 20 v24 m492 0 v-24 m-492 24 q0 10 10 10 m472 0 q10 0 10 -10 m-482 10 h10 m26 0 h10 m0 0 h10 m90 0 h10 m0 0 h10 m26 0 h10 m0 0 h270 m-482 -10 v20 m492 0 v-20 m-492 20 v24 m492 0 v-24 m-492 24 q0 10 10 10 m472 0 q10 0 10 -10 m-482 10 h10 m96 0 h10 m0 0 h356 m-482 -10 v20 m492 0 v-20 m-492 20 v24 m492 0 v-24 m-492 24 q0 10 10 10 m472 0 q10 0 10 -10 m-482 10 h10 m94 0 h10 m0 0 h358 m-482 -10 v20 m492 0 v-20 m-492 20 v24 m492 0 v-24 m-492 24 q0 10 10 10 m472 0 q10 0 10 -10 m-482 10 h10 m122 0 h10 m0 0 h330 m23 -252 h-3"/>
   <polygon points="541 17 549 13 549 21"/>
   <polygon points="541 17 533 13 533 21"/>
</svg>
